<svg width="20" height="20" viewBox="0 0 20 20" fill="none" xmlns="http://www.w3.org/2000/svg">
<path d="M20 10C20 15.5228 15.5228 20 10 20C4.47715 20 0 15.5228 0 10C0 4.47715 4.47715 0 10 0C15.5228 0 20 4.47715 20 10Z" fill="#736CED"/>
<path d="M15.0429 6.23787C14.9682 6.1625 14.8792 6.10267 14.7812 6.06185C14.6832 6.02102 14.5781 6 14.472 6C14.3658 6 14.2607 6.02102 14.1627 6.06185C14.0647 6.10267 13.9758 6.1625 13.901 6.23787L7.90986 12.2371L5.39278 9.71193C5.31516 9.63695 5.22353 9.57799 5.12312 9.53842C5.02271 9.49886 4.9155 9.47945 4.80759 9.48132C4.69969 9.48318 4.59321 9.50629 4.49423 9.5493C4.39525 9.59232 4.30572 9.65442 4.23074 9.73204C4.15576 9.80966 4.0968 9.90129 4.05723 10.0017C4.01766 10.1021 3.99826 10.2093 4.00012 10.3172C4.00199 10.4251 4.02509 10.5316 4.06811 10.6306C4.11113 10.7296 4.17322 10.8191 4.25084 10.8941L7.33889 13.9821C7.41365 14.0575 7.50259 14.1173 7.60059 14.1582C7.69859 14.199 7.8037 14.22 7.90986 14.22C8.01602 14.22 8.12113 14.199 8.21913 14.1582C8.31712 14.1173 8.40607 14.0575 8.48083 13.9821L15.0429 7.42002C15.1246 7.34471 15.1897 7.25332 15.2343 7.15159C15.2788 7.04986 15.3018 6.94001 15.3018 6.82895C15.3018 6.71789 15.2788 6.60803 15.2343 6.50631C15.1897 6.40458 15.1246 6.31318 15.0429 6.23787Z" fill="white"/>
<path d="M10 0.5C15.2467 0.5 19.5 4.75329 19.5 10C19.5 15.2467 15.2467 19.5 10 19.5C4.75329 19.5 0.5 15.2467 0.5 10C0.5 4.75329 4.75329 0.5 10 0.5ZM14.8018 6.8291C14.8017 6.87106 14.7932 6.91274 14.7764 6.95117C14.7595 6.9896 14.7349 7.02428 14.7041 7.05273L14.6963 7.05957L8.12598 13.6299C8.0977 13.6584 8.06344 13.6808 8.02637 13.6963C7.98947 13.7116 7.95011 13.7197 7.91016 13.7197C7.87 13.7197 7.83003 13.7117 7.79297 13.6963C7.75598 13.6809 7.72257 13.6583 7.69434 13.6299L7.69238 13.6289L4.60449 10.54L4.59863 10.5342L4.55762 10.4863C4.54565 10.4691 4.53479 10.451 4.52637 10.4316C4.50952 10.3929 4.50073 10.3508 4.5 10.3086C4.49927 10.2663 4.50697 10.2239 4.52246 10.1846C4.53795 10.1454 4.56156 10.1094 4.59082 10.0791C4.62007 10.0489 4.65482 10.0246 4.69336 10.0078C4.73212 9.99097 4.77415 9.98218 4.81641 9.98145C4.85854 9.98074 4.90024 9.98848 4.93945 10.0039C4.97861 10.0193 5.01461 10.0421 5.04492 10.0713V10.0703L7.55566 12.5898L7.90918 12.9453L8.26367 12.5908L14.2549 6.59082L14.2559 6.58984C14.2841 6.56133 14.3184 6.53888 14.3555 6.52344C14.3923 6.50814 14.4318 6.50004 14.4717 6.5C14.5118 6.5 14.5518 6.50801 14.5889 6.52344C14.6258 6.53883 14.6593 6.56146 14.6875 6.58984L14.6953 6.59766L14.7041 6.60547C14.7349 6.63393 14.7595 6.66862 14.7764 6.70703C14.7932 6.74547 14.8018 6.78715 14.8018 6.8291ZM15.8018 6.8291C15.8018 6.649 15.7646 6.47064 15.6924 6.30566C15.6201 6.14068 15.5142 5.99224 15.3818 5.87012H15.3809C15.2632 5.75558 15.1254 5.66383 14.9736 5.60059C14.8147 5.53437 14.6438 5.5 14.4717 5.5C14.2997 5.50004 14.1295 5.53445 13.9707 5.60059C13.8122 5.66663 13.6679 5.76297 13.5469 5.88477L7.90918 11.5283L5.74707 9.35938V9.3584L5.74023 9.35254L5.64258 9.2666C5.54094 9.18611 5.4277 9.12097 5.30664 9.07324C5.14515 9.0096 4.97238 8.97844 4.79883 8.98145C4.62531 8.98446 4.45408 9.02164 4.29492 9.09082C4.13574 9.16001 3.99168 9.25993 3.87109 9.38477C3.75053 9.5096 3.65543 9.6569 3.5918 9.81836C3.52817 9.97983 3.497 10.1526 3.5 10.3262C3.50304 10.4996 3.54022 10.671 3.60938 10.8301C3.67738 10.9865 3.77562 11.1278 3.89746 11.2471V11.248L6.98535 14.3359V14.335C7.10637 14.4567 7.24976 14.5541 7.4082 14.6201C7.56711 14.6863 7.73801 14.7197 7.91016 14.7197C8.08208 14.7197 8.25241 14.6862 8.41113 14.6201C8.56928 14.5542 8.71311 14.4573 8.83398 14.3359L15.3965 7.77344L15.3955 7.77246C15.5209 7.6531 15.6228 7.51125 15.6924 7.35254C15.7646 7.18761 15.8017 7.00916 15.8018 6.8291Z" stroke="#12141D" stroke-opacity="0.1"/>
</svg>
