<svg width="60" height="60" viewBox="0 0 60 60" fill="none" xmlns="http://www.w3.org/2000/svg">
<path d="M60 30C60 46.5685 46.5685 60 30 60C13.4315 60 0 46.5685 0 30C0 13.4315 13.4315 0 30 0C46.5685 0 60 13.4315 60 30Z" fill="#736CED"/>
<path d="M38.2287 15.8146C36.8074 14.6456 35.1431 13.8087 33.3572 13.3649C31.5713 12.9211 29.7088 12.8816 27.9057 13.2493C25.5048 13.7342 23.302 14.9214 21.5769 16.6603C19.8518 18.3992 18.6821 20.6113 18.2163 23.016C17.876 24.819 17.9379 26.6748 18.3973 28.4512C18.8568 30.2276 19.7025 31.8807 20.8743 33.2926C21.9617 34.5197 22.5851 36.089 22.636 37.7278V42.3639C22.636 43.5935 23.1244 44.7727 23.9939 45.6421C24.8633 46.5116 26.0425 47 27.2721 47H33.4535C34.6831 47 35.8623 46.5116 36.7318 45.6421C37.6012 44.7727 38.0896 43.5935 38.0896 42.3639V38.0214C38.1415 36.2121 38.8062 34.4739 39.975 33.0917C42.0228 30.5585 42.9881 27.3195 42.6611 24.0786C42.3341 20.8377 40.7413 17.8567 38.2287 15.7836V15.8146ZM34.9989 42.3639C34.9989 42.7738 34.8361 43.1668 34.5463 43.4566C34.2565 43.7465 33.8634 43.9093 33.4535 43.9093H27.2721C26.8622 43.9093 26.4692 43.7465 26.1794 43.4566C25.8895 43.1668 25.7267 42.7738 25.7267 42.3639V40.8185H34.9989V42.3639ZM37.5797 31.1755C36.0258 33.0185 35.1192 35.3202 34.9989 37.7278H31.9082V33.0917C31.9082 32.6819 31.7454 32.2888 31.4556 31.999C31.1657 31.7092 30.7727 31.5464 30.3628 31.5464C29.953 31.5464 29.5599 31.7092 29.2701 31.999C28.9803 32.2888 28.8175 32.6819 28.8175 33.0917V37.7278H25.7267C25.686 35.3605 24.8102 33.0836 23.2541 31.2991C22.2275 30.069 21.5371 28.5938 21.2503 27.0174C20.9635 25.4411 21.0901 23.8172 21.6177 22.3044C22.1454 20.7915 23.0561 19.4411 24.261 18.385C25.4659 17.3289 26.9239 16.603 28.4929 16.2782C29.8413 16.0005 31.2347 16.0266 32.5717 16.3546C33.9088 16.6826 35.156 17.3042 36.2229 18.1743C37.2898 19.0443 38.1496 20.1411 38.7397 21.3848C39.3299 22.6286 39.6358 23.9882 39.635 25.3649C39.6464 27.4818 38.9196 29.5366 37.5797 31.1755Z" fill="white"/>
</svg>
