<svg width="60" height="60" viewBox="0 0 60 60" fill="none" xmlns="http://www.w3.org/2000/svg">
<path d="M60 30C60 46.5685 46.5685 60 30 60C13.4315 60 0 46.5685 0 30C0 13.4315 13.4315 0 30 0C46.5685 0 60 13.4315 60 30Z" fill="#736CED"/>
<path d="M15.7363 25.3796L28.9794 33.0312C29.2031 33.1604 29.4569 33.2283 29.7152 33.2283C29.9735 33.2283 30.2272 33.1604 30.4509 33.0312L43.694 25.3796C43.9164 25.2512 44.1013 25.0669 44.2304 24.8449C44.3595 24.6229 44.4282 24.371 44.4297 24.1142C44.4308 23.8549 44.3633 23.5999 44.2341 23.3751C44.1049 23.1503 43.9185 22.9636 43.694 22.834L30.4509 15.1971C30.2272 15.068 29.9735 15 29.7152 15C29.4569 15 29.2031 15.068 28.9794 15.1971L15.7363 22.834C15.5118 22.9636 15.3255 23.1503 15.1963 23.3751C15.0671 23.5999 14.9996 23.8549 15.0006 24.1142C15.0021 24.371 15.0709 24.6229 15.1999 24.8449C15.329 25.0669 15.5139 25.2512 15.7363 25.3796ZM29.7152 18.2283L40.0154 24.1142L29.7152 30L19.415 24.1142L29.7152 18.2283ZM42.2225 28.7787L29.7152 35.8858L17.2078 28.7198C17.0398 28.6225 16.8543 28.5594 16.6619 28.5341C16.4694 28.5089 16.2739 28.5219 16.0865 28.5725C15.8991 28.6231 15.7236 28.7103 15.5701 28.829C15.4165 28.9477 15.288 29.0957 15.1919 29.2643C15 29.6021 14.9496 30.0022 15.0516 30.3771C15.1536 30.752 15.3997 31.0713 15.7363 31.2655L28.9794 38.917C29.2031 39.0462 29.4569 39.1142 29.7152 39.1142C29.9735 39.1142 30.2272 39.0462 30.4509 38.917L43.694 31.2655C44.0306 31.0713 44.2767 30.752 44.3787 30.3771C44.4807 30.0022 44.4303 29.6021 44.2384 29.2643C44.1423 29.0957 44.0138 28.9477 43.8602 28.829C43.7067 28.7103 43.5312 28.6231 43.3438 28.5725C43.1564 28.5219 42.9609 28.5089 42.7685 28.5341C42.576 28.5594 42.3905 28.6225 42.2225 28.7198V28.7787ZM42.2225 34.6645L29.7152 41.7717L17.2078 34.6057C17.0398 34.5084 16.8543 34.4453 16.6619 34.42C16.4694 34.3947 16.2739 34.4077 16.0865 34.4583C15.8991 34.5089 15.7236 34.5961 15.5701 34.7148C15.4165 34.8336 15.288 34.9815 15.1919 35.1501C15 35.488 14.9496 35.888 15.0516 36.2629C15.1536 36.6378 15.3997 36.9572 15.7363 37.1513L28.9794 44.8029C29.2031 44.932 29.4569 45 29.7152 45C29.9735 45 30.2272 44.932 30.4509 44.8029L43.694 37.1513C44.0306 36.9572 44.2767 36.6378 44.3787 36.2629C44.4807 35.888 44.4303 35.488 44.2384 35.1501C44.1423 34.9815 44.0138 34.8336 43.8602 34.7148C43.7067 34.5961 43.5312 34.5089 43.3438 34.4583C43.1564 34.4077 42.9609 34.3947 42.7685 34.42C42.576 34.4453 42.3905 34.5084 42.2225 34.6057V34.6645Z" fill="white"/>
</svg>
