<svg width="60" height="60" viewBox="0 0 60 60" fill="none" xmlns="http://www.w3.org/2000/svg">
<path d="M60 30C60 46.5685 46.5685 60 30 60C13.4315 60 0 46.5685 0 30C0 13.4315 13.4315 0 30 0C46.5685 0 60 13.4315 60 30Z" fill="#736CED"/>
<path d="M30 31.5C29.6022 31.5 29.2206 31.658 28.9393 31.9393C28.658 32.2206 28.5 32.6022 28.5 33V37.5C28.5 37.8978 28.658 38.2794 28.9393 38.5607C29.2206 38.842 29.6022 39 30 39C30.3978 39 30.7794 38.842 31.0607 38.5607C31.342 38.2794 31.5 37.8978 31.5 37.5V33C31.5 32.6022 31.342 32.2206 31.0607 31.9393C30.7794 31.658 30.3978 31.5 30 31.5ZM37.5 25.5V22.5C37.5 20.5109 36.7098 18.6032 35.3033 17.1967C33.8968 15.7902 31.9891 15 30 15C28.0109 15 26.1032 15.7902 24.6967 17.1967C23.2902 18.6032 22.5 20.5109 22.5 22.5V25.5C21.3065 25.5 20.1619 25.9741 19.318 26.818C18.4741 27.6619 18 28.8065 18 30V40.5C18 41.6935 18.4741 42.8381 19.318 43.682C20.1619 44.5259 21.3065 45 22.5 45H37.5C38.6935 45 39.8381 44.5259 40.682 43.682C41.5259 42.8381 42 41.6935 42 40.5V30C42 28.8065 41.5259 27.6619 40.682 26.818C39.8381 25.9741 38.6935 25.5 37.5 25.5ZM25.5 22.5C25.5 21.3065 25.9741 20.1619 26.818 19.318C27.6619 18.4741 28.8065 18 30 18C31.1935 18 32.3381 18.4741 33.182 19.318C34.0259 20.1619 34.5 21.3065 34.5 22.5V25.5H25.5V22.5ZM39 40.5C39 40.8978 38.842 41.2794 38.5607 41.5607C38.2794 41.842 37.8978 42 37.5 42H22.5C22.1022 42 21.7206 41.842 21.4393 41.5607C21.158 41.2794 21 40.8978 21 40.5V30C21 29.6022 21.158 29.2206 21.4393 28.9393C21.7206 28.658 22.1022 28.5 22.5 28.5H37.5C37.8978 28.5 38.2794 28.658 38.5607 28.9393C38.842 29.2206 39 29.6022 39 30V40.5Z" fill="white"/>
</svg>
