<svg width="18" height="18" viewBox="0 0 18 18" fill="none" xmlns="http://www.w3.org/2000/svg">
<path d="M9.00018 2.54999C12.5623 2.55009 15.4504 5.43801 15.4504 9.00018C15.4503 12.5623 12.5623 15.4503 9.00018 15.4504C5.43801 15.4504 2.55009 12.5623 2.54999 9.00018C2.54999 5.43795 5.43795 2.54999 9.00018 2.54999ZM9.01483 5.82733C8.50855 5.4899 7.85792 5.45821 7.32147 5.7453C6.78496 6.03243 6.45038 6.59187 6.45038 7.20038V10.8C6.45038 11.4085 6.78496 11.9679 7.32147 12.2551C7.85782 12.542 8.50862 12.5103 9.01483 12.173L11.715 10.3732C12.174 10.0672 12.4503 9.55179 12.4504 9.00018C12.4504 8.4485 12.1741 7.93316 11.715 7.62714L9.01483 5.82733Z" fill="#12141D" stroke="#12141D" stroke-width="1.5"/>
</svg>
